<svg width="200" height="200" viewBox="0 0 200 200" fill="none" xmlns="http://www.w3.org/2000/svg">
<line x1="36" y1="100" x2="70" y2="100" stroke="#38AAC2" stroke-width="12"/>
<line x1="36" y1="100" x2="70" y2="100" stroke="#38AAC2" stroke-width="12"/>
<line x1="36" y1="100" x2="70" y2="100" stroke="url(#paint0_linear)" stroke-width="12"/>
<line x1="26.7095" y1="39.2841" x2="52.4918" y2="59.5639" stroke="#38AAC2" stroke-width="12"/>
<line x1="26.7095" y1="39.2841" x2="52.4918" y2="59.5639" stroke="#38AAC2" stroke-width="12"/>
<line x1="26.7095" y1="39.2841" x2="52.4918" y2="59.5639" stroke="url(#paint1_linear)" stroke-width="12"/>
<line x1="126.428" y1="194.101" x2="118.944" y2="162.164" stroke="#38AAC2" stroke-width="12"/>
<line x1="126.428" y1="194.101" x2="118.944" y2="162.164" stroke="#38AAC2" stroke-width="12"/>
<line x1="126.428" y1="194.101" x2="118.944" y2="162.164" stroke="url(#paint2_linear)" stroke-width="12"/>
<line x1="126.428" y1="194.101" x2="118.944" y2="162.164" stroke="url(#paint3_linear)" stroke-width="12"/>
<line x1="140.231" y1="52.4294" x2="160.139" y2="26.3586" stroke="#38AAC2" stroke-width="12"/>
<line x1="140.231" y1="52.4294" x2="160.139" y2="26.3586" stroke="#38AAC2" stroke-width="12"/>
<line x1="140.231" y1="52.4294" x2="160.139" y2="26.3586" stroke="url(#paint4_linear)" stroke-width="12"/>
<line x1="140.231" y1="52.4294" x2="160.139" y2="26.3586" stroke="url(#paint5_linear)" stroke-width="12"/>
<path d="M190.348 121.3C194.205 122.209 196.62 126.084 195.436 129.865C189.146 149.969 176.642 167.638 159.635 180.272C142.628 192.907 122.101 199.777 101.038 199.995C97.0755 200.036 94.0634 196.605 94.3065 192.65C94.5495 188.695 97.9568 185.717 101.918 185.629C119.598 185.233 136.788 179.369 151.077 168.753C165.367 158.138 175.944 143.373 181.428 126.561C182.657 122.793 186.491 120.391 190.348 121.3Z" fill="url(#paint6_linear)"/>
<path d="M78.1685 190.221C77.2365 194.073 73.3483 196.464 69.5736 195.259C54.8109 190.544 41.3128 182.45 30.1725 171.583C19.0322 160.716 10.6061 147.423 5.52588 132.782C4.22687 129.038 6.52139 125.092 10.3486 124.064C14.1757 123.037 18.0823 125.32 19.4263 129.048C23.809 141.205 30.8979 152.244 40.1928 161.311C49.4877 170.378 60.6989 177.19 72.961 181.27C76.721 182.521 79.1005 186.37 78.1685 190.221Z" fill="url(#paint7_linear)"/>
<path d="M7.17501 100C3.21236 100 -0.0268208 96.7832 0.257116 92.8307C1.97412 68.9296 12.2328 46.3459 29.2893 29.2893C48.043 10.5357 73.4783 2.84326e-06 100 -2.85626e-09C126.522 -2.84897e-06 151.957 10.5357 170.711 29.2893C187.767 46.3459 198.026 68.9296 199.743 92.8307C200.027 96.7832 196.788 100 192.825 100C188.862 100 185.681 96.7815 185.35 92.8327C183.663 72.7421 174.928 53.8008 160.564 39.4363C144.501 23.3738 122.716 14.35 100 14.35C77.2842 14.35 55.4988 23.3738 39.4363 39.4363C25.0719 53.8008 16.3366 72.7421 14.6502 92.8327C14.3188 96.7815 11.1377 100 7.17501 100Z" fill="url(#paint8_linear)"/>
<path d="M48.3377 63.9444C45.1674 61.7319 44.3659 57.3408 46.8838 54.4073C56.6222 43.0615 69.7868 35.0816 84.4864 31.7407C101.471 27.8805 119.285 30.4912 134.448 39.0629C149.611 47.6346 161.034 61.5515 166.484 78.0947C171.935 94.6379 171.022 112.619 163.924 128.525C156.826 144.431 144.053 157.12 128.1 164.112C112.147 171.104 94.1606 171.898 77.654 166.337C61.1473 160.777 47.3066 149.262 38.8357 134.043C31.5046 120.871 28.6513 105.744 30.5915 90.9181C31.0932 87.0848 34.8966 84.7486 38.6607 85.6304C42.4247 86.5122 44.7145 90.2801 44.3089 94.1248C43.1047 105.538 45.4326 117.109 51.0685 127.234C57.8453 139.41 68.9178 148.622 82.1232 153.07C95.3285 157.518 109.718 156.883 122.48 151.29C135.243 145.696 145.461 135.545 151.139 122.82C156.818 110.095 157.548 95.7103 153.187 82.4757C148.827 69.2412 139.689 58.1077 127.559 51.2504C115.428 44.393 101.177 42.3044 87.5891 45.3926C76.2886 47.9609 66.1221 53.9563 58.4321 62.475C55.8416 65.3447 51.5079 66.157 48.3377 63.9444Z" fill="url(#paint9_linear)"/>
<path d="M130.783 113.467C134.022 114.883 135.539 118.694 133.624 121.666C129.815 127.578 124.491 132.414 118.158 135.641C109.912 139.842 100.465 141.054 91.4257 139.07C82.3866 137.086 74.315 132.03 68.5861 124.762C62.8572 117.494 59.8256 108.465 60.0077 99.2127C60.1899 89.9602 63.5746 81.0572 69.5851 74.0206C75.5955 66.9839 83.8599 62.249 92.9701 60.6226C102.08 58.9962 111.473 60.5789 119.547 65.1011C125.748 68.5746 130.877 73.6173 134.451 79.6745C136.247 82.7188 134.581 86.4673 131.289 87.7554C127.998 89.0435 124.341 87.3562 122.321 84.4556C119.985 81.1012 116.906 78.2931 113.292 76.2688C107.801 73.1937 101.415 72.1174 95.2197 73.2234C89.0248 74.3293 83.405 77.5491 79.3178 82.334C75.2307 87.1189 72.9291 93.173 72.8053 99.4646C72.6814 105.756 74.7429 111.896 78.6385 116.838C82.5342 121.78 88.0229 125.219 94.1695 126.568C100.316 127.917 106.74 127.093 112.347 124.236C116.038 122.355 119.225 119.671 121.692 116.411C123.824 113.592 127.545 112.05 130.783 113.467Z" fill="url(#paint10_linear)"/>
<defs>
<linearGradient id="paint0_linear" x1="53" y1="106" x2="53" y2="94" gradientUnits="userSpaceOnUse">
<stop stop-color="#4963B1"/>
<stop offset="1" stop-color="#3B7CBC"/>
</linearGradient>
<linearGradient id="paint1_linear" x1="36" y1="38" x2="50.5" y2="54" gradientUnits="userSpaceOnUse">
<stop stop-color="#2D96C7"/>
<stop offset="1" stop-color="#2B9AC8"/>
</linearGradient>
<linearGradient id="paint2_linear" x1="124.612" y1="164.291" x2="132.34" y2="190.205" gradientUnits="userSpaceOnUse">
<stop stop-color="#63319C"/>
<stop offset="1" stop-color="#63329C"/>
<stop offset="1" stop-color="#61369E"/>
</linearGradient>
<linearGradient id="paint3_linear" x1="124.612" y1="164.291" x2="132.34" y2="190.205" gradientUnits="userSpaceOnUse">
<stop stop-color="#63319C"/>
<stop offset="1" stop-color="#63329C"/>
<stop offset="1" stop-color="#61369E"/>
</linearGradient>
<linearGradient id="paint4_linear" x1="162.098" y1="32.0872" x2="146.996" y2="54.5189" gradientUnits="userSpaceOnUse">
<stop stop-color="#63319C"/>
<stop offset="1" stop-color="#63329C"/>
<stop offset="1" stop-color="#61369E"/>
</linearGradient>
<linearGradient id="paint5_linear" x1="148.5" y1="21" x2="149.5" y2="53.5" gradientUnits="userSpaceOnUse">
<stop stop-color="#25A7CE"/>
<stop offset="1" stop-color="#2A9CC9"/>
</linearGradient>
<linearGradient id="paint6_linear" x1="100" y1="-2.85684e-09" x2="100" y2="200" gradientUnits="userSpaceOnUse">
<stop stop-color="#1EB3D3"/>
<stop offset="1" stop-color="#662C9A"/>
</linearGradient>
<linearGradient id="paint7_linear" x1="100" y1="-2.85684e-09" x2="100" y2="200" gradientUnits="userSpaceOnUse">
<stop stop-color="#1EB3D3"/>
<stop offset="1" stop-color="#662C9A"/>
</linearGradient>
<linearGradient id="paint8_linear" x1="100" y1="-2.85684e-09" x2="100" y2="200" gradientUnits="userSpaceOnUse">
<stop stop-color="#1EB3D3"/>
<stop offset="1" stop-color="#662C9A"/>
</linearGradient>
<linearGradient id="paint9_linear" x1="100" y1="30" x2="100" y2="170" gradientUnits="userSpaceOnUse">
<stop stop-color="#1EB3D3"/>
<stop offset="1" stop-color="#662C9A"/>
</linearGradient>
<linearGradient id="paint10_linear" x1="100" y1="60" x2="100" y2="140" gradientUnits="userSpaceOnUse">
<stop stop-color="#1EB3D3"/>
<stop offset="1" stop-color="#662C9A"/>
</linearGradient>
</defs>
</svg>
